<svg id="Layer_1" data-name="Layer 1" xmlns="http://www.w3.org/2000/svg" viewBox="0 0 841.89 280.28"><defs><style>.cls-1{fill:#125baa;}.cls-2{fill:#fff;}.cls-3{fill:#919198;}</style></defs><circle class="cls-1" cx="136.59" cy="140.14" r="95.51"/><polygon class="cls-2" points="136.59 131.16 136.59 131.15 107.18 113.41 107.18 112.94 136.59 95.2 136.59 77.23 90.84 106.41 90.84 119.94 136.59 149.12 136.59 149.13 166 166.87 166 167.33 136.59 185.07 136.59 203.05 182.34 173.87 182.34 160.33 136.59 131.16"/><path class="cls-1" d="M304.73,129.23q6.06,8.52,6.07,24a45.17,45.17,0,0,1-3,17,26.33,26.33,0,0,1-8.46,11.56,20.92,20.92,0,0,1-13,4.14,20,20,0,0,1-9.16-2.1,21.58,21.58,0,0,1-7.18-5.95l-.93,6.3H255.94V97.71l14.94-1.63v33.26a21.69,21.69,0,0,1,7.35-6.36,19.94,19.94,0,0,1,9.46-2.27Q298.65,120.71,304.73,129.23Zm-13,40.32q3.39-5.19,3.39-16.28,0-11.67-3.15-16.52a10,10,0,0,0-8.87-4.84q-7.12,0-12.26,8.4v27.32a17.55,17.55,0,0,0,5.14,5.25,11.69,11.69,0,0,0,6.42,1.87A10.57,10.57,0,0,0,291.77,169.55Z"/><path class="cls-1" d="M368.83,129.4q7.64,8.7,7.64,23.87a39.51,39.51,0,0,1-3.5,17.1,26.64,26.64,0,0,1-10,11.5A28.75,28.75,0,0,1,347.41,186q-13.65,0-21.36-8.7t-7.7-24a39.26,39.26,0,0,1,3.5-17A26.48,26.48,0,0,1,332,124.79a29,29,0,0,1,15.58-4.08Q361.18,120.71,368.83,129.4Zm-34.72,23.87q0,11,3.32,16.17t10,5.19a11,11,0,0,0,10-5.25q3.33-5.25,3.33-16.11t-3.33-16.05a11,11,0,0,0-9.86-5.19Q334.11,132,334.11,153.27Z"/><path class="cls-1" d="M434.34,129.4q7.65,8.7,7.65,23.87a39.66,39.66,0,0,1-3.5,17.1,26.66,26.66,0,0,1-10,11.5A28.71,28.71,0,0,1,412.93,186q-13.67,0-21.36-8.7t-7.71-24a39.12,39.12,0,0,1,3.51-17,26.46,26.46,0,0,1,10.09-11.44A29,29,0,0,1,413,120.71Q426.7,120.71,434.34,129.4Zm-34.72,23.87q0,11,3.33,16.17t10,5.19a11,11,0,0,0,10-5.25q3.31-5.25,3.32-16.11t-3.32-16.05A11,11,0,0,0,413,132Q399.61,132,399.62,153.27Z"/><path class="cls-1" d="M493.15,181.28a23.59,23.59,0,0,1-7.3,3.5,29.29,29.29,0,0,1-8.23,1.17q-9.09-.12-13.83-5.19t-4.72-15V133.19h-9.69V122.46h9.69V108.8L474,107.05v15.41h14.35l-1.51,10.73H474v32.22q0,4.54,1.57,6.53a5.94,5.94,0,0,0,5,2,14.24,14.24,0,0,0,7.36-2.34Z"/><path class="cls-1" d="M540.28,122.46a29,29,0,0,1,9.16,5.48l-6.65,9a24,24,0,0,0-6.07-3.39,18.84,18.84,0,0,0-6.42-1q-13.89,0-13.89,21.13,0,10.74,3.62,15.47t10.27,4.72a16.68,16.68,0,0,0,6-1.05,39.39,39.39,0,0,0,6.48-3.38l6.65,9.45a30.73,30.73,0,0,1-20,7.12,29.38,29.38,0,0,1-15.4-3.91,25.62,25.62,0,0,1-10-11.15,38.63,38.63,0,0,1-3.5-17,40.6,40.6,0,0,1,3.5-17.33,26.78,26.78,0,0,1,10-11.67,27.93,27.93,0,0,1,15.29-4.14A31.89,31.89,0,0,1,540.28,122.46Z"/><path class="cls-1" d="M608.48,173.17A7.16,7.16,0,0,0,612,175.8l-3.15,9.92a19.62,19.62,0,0,1-8.58-2.51,12.77,12.77,0,0,1-5.08-6.48,19.68,19.68,0,0,1-7.88,6.94A24,24,0,0,1,576.79,186q-9.22,0-14.59-5.25t-5.37-13.77q0-10.05,7.3-15.35T585,146.27h7.7v-3.51c0-4-.91-6.75-2.74-8.34s-4.77-2.39-8.81-2.39q-6.76,0-16.34,3.26l-3.5-10.15a62.26,62.26,0,0,1,22.41-4.43q23.69,0,23.69,21.24v25.91A9.91,9.91,0,0,0,608.48,173.17Zm-15.82-5.66V155h-6.18Q572,155,572,165.76c0,3,.73,5.25,2.21,6.88s3.66,2.46,6.54,2.46Q588.35,175.1,592.66,167.51Z"/><path class="cls-1" d="M696.81,125.78q4.44,5.08,4.44,13.72v44.7H686.31V141.83q0-9.92-6.77-9.92a9.25,9.25,0,0,0-6.25,2.28,28,28,0,0,0-5.42,7.06V184.2H652.93V141.83q0-9.92-6.77-9.92a9.37,9.37,0,0,0-6.36,2.28,28.24,28.24,0,0,0-5.43,7.06V184.2H619.43V122.46h13l1.17,8q7-9.81,17.86-9.8a16,16,0,0,1,9.28,2.68,15.73,15.73,0,0,1,5.78,7.7,26.54,26.54,0,0,1,8-7.76,20,20,0,0,1,10.39-2.62Q692.38,120.71,696.81,125.78Z"/><path class="cls-1" d="M757.83,129.23q5.67,8.52,5.66,23.92a47,47,0,0,1-2.86,17,25.71,25.71,0,0,1-8.4,11.61A21.13,21.13,0,0,1,739.1,186q-9.81,0-15.52-6.77V208l-14.94,1.63V122.46h13.07l.82,7.58a23,23,0,0,1,8.22-7,21.53,21.53,0,0,1,9.63-2.33Q752.17,120.71,757.83,129.23Zm-10,24q0-11.45-3-16.4a9.74,9.74,0,0,0-8.93-5,11.6,11.6,0,0,0-6.83,2.28,20.08,20.08,0,0,0-5.54,6.12v27.78q4.3,6.42,11.32,6.42Q747.86,174.51,747.85,153.27Z"/><path class="cls-3" d="M778.62,183.4a15.63,15.63,0,0,1-.74,5.31,7.42,7.42,0,0,1-2.15,3.18,17.7,17.7,0,0,1-4,2.38l-.84-2.06a13.24,13.24,0,0,0,2.87-1.83,5.7,5.7,0,0,0,1.52-2.5,14.9,14.9,0,0,0,.51-4.38V158.73h2.84Zm.1-35.34a2.14,2.14,0,0,1,0,2.93,2.11,2.11,0,0,1-1.57.59,2,2,0,0,1-1.52-.59,2.11,2.11,0,0,1,0-2.93,2.07,2.07,0,0,1,1.52-.59A2.15,2.15,0,0,1,778.72,148.06Z"/><path class="cls-3" d="M796.3,158.9a14.14,14.14,0,0,1,3.82,2.13l-1.32,1.86a14.41,14.41,0,0,0-3.33-1.79,10.14,10.14,0,0,0-3.42-.56,6.73,6.73,0,0,0-4.12,1.17,3.74,3.74,0,0,0-1.56,3.14,3.45,3.45,0,0,0,1.34,2.89,15,15,0,0,0,4.87,1.95,15.42,15.42,0,0,1,6.29,2.84,6.22,6.22,0,0,1,1.94,4.9,6.45,6.45,0,0,1-2.65,5.43,10.58,10.58,0,0,1-6.6,2,14.12,14.12,0,0,1-5.14-.86,13.77,13.77,0,0,1-4-2.42l1.57-1.81a12.71,12.71,0,0,0,3.5,2,11.61,11.61,0,0,0,4,.66,7.4,7.4,0,0,0,4.57-1.3,4.22,4.22,0,0,0,1.74-3.59,4.91,4.91,0,0,0-.58-2.55,4.79,4.79,0,0,0-2-1.69,23.88,23.88,0,0,0-4.16-1.44,14.25,14.25,0,0,1-5.85-2.7,5.51,5.51,0,0,1-1.79-4.3,5.68,5.68,0,0,1,1.13-3.45,7.38,7.38,0,0,1,3.06-2.4,10.56,10.56,0,0,1,4.33-.86A12.72,12.72,0,0,1,796.3,158.9Z"/></svg>