<svg id="Capa_1" enable-background="new 0 0 510 510" height="512" viewBox="0 0 510 510" width="512" xmlns="http://www.w3.org/2000/svg" xmlns:xlink="http://www.w3.org/1999/xlink"><linearGradient id="lg1"><stop offset="0" stop-color="#b4d2e2"/><stop offset="1" stop-color="#7bacdf"/></linearGradient><linearGradient id="SVGID_1_" gradientUnits="userSpaceOnUse" x1="72.208" x2="214.397" xlink:href="#lg1" y1="19.644" y2="161.832"/><linearGradient id="SVGID_2_" gradientUnits="userSpaceOnUse" x1="490.667" x2="410.597" y1="259.103" y2="259.103"><stop offset="0" stop-color="#7bacdf" stop-opacity="0"/><stop offset="1" stop-color="#017297"/></linearGradient><linearGradient id="SVGID_3_" gradientUnits="userSpaceOnUse" x1="67.203" x2="404.956" xlink:href="#lg1" y1="100.639" y2="438.392"/><linearGradient id="lg2"><stop offset="0" stop-color="#e6eeff"/><stop offset="1" stop-color="#bac8fa"/></linearGradient><linearGradient id="SVGID_4_" gradientUnits="userSpaceOnUse" x1="138.504" x2="478.615" xlink:href="#lg2" y1="161.568" y2="501.68"/><linearGradient id="lg3"><stop offset="0" stop-color="#a7b7f1" stop-opacity="0"/><stop offset="1" stop-color="#a7b7f1"/></linearGradient><linearGradient id="SVGID_5_" gradientUnits="userSpaceOnUse" x1="333.912" x2="133.412" xlink:href="#lg3" y1="280.772" y2="57.272"/><linearGradient id="SVGID_6_" gradientUnits="userSpaceOnUse" x1="251.5" x2="251.5" xlink:href="#lg3" y1="476" y2="505.108"/><linearGradient id="SVGID_7_" gradientUnits="userSpaceOnUse" x1="337.678" x2="390.931" xlink:href="#lg2" y1="426.95" y2="480.202"/><linearGradient id="lg4"><stop offset="0" stop-color="#fd4755"/><stop offset="1" stop-color="#a72b2b"/></linearGradient><linearGradient id="SVGID_8_" gradientUnits="userSpaceOnUse" x1="166.827" x2="238.04" xlink:href="#lg4" y1="107.173" y2="178.386"/><linearGradient id="SVGID_9_" gradientUnits="userSpaceOnUse" x1="141.834" x2="166.517" xlink:href="#lg4" y1="219.166" y2="243.849"/><linearGradient id="SVGID_10_" gradientUnits="userSpaceOnUse" x1="162.834" x2="187.517" xlink:href="#lg4" y1="286.166" y2="310.849"/><linearGradient id="SVGID_11_" gradientUnits="userSpaceOnUse" x1="142.334" x2="167.017" xlink:href="#lg4" y1="357.666" y2="382.349"/><linearGradient id="SVGID_12_" gradientUnits="userSpaceOnUse" x1="166.095" x2="239.808" xlink:href="#lg4" y1="138.187" y2="138.187"/><g><path d="m435.801 470.872h-295.602c-11.834 0-21.428-9.594-21.428-21.428v-428.016c0-11.834 9.594-21.428 21.428-21.428h295.602c11.834 0 21.428 9.594 21.428 21.428v428.016c-.001 11.834-9.594 21.428-21.428 21.428z" fill="url(#SVGID_1_)"/><path d="m416.25 47.333v298.191c0 45.588-15.153 89.608-42.655 125.348h62.206c11.834 0 21.428-9.594 21.428-21.428v-361.132z" fill="url(#SVGID_2_)"/><path d="m369.801 490.872h-295.602c-11.834 0-21.428-9.594-21.428-21.428v-428.016c0-11.834 9.594-21.428 21.428-21.428h295.602c11.834 0 21.428 9.594 21.428 21.428v428.016c-.001 11.834-9.594 21.428-21.428 21.428z" fill="url(#SVGID_3_)"/><g><path d="m336.495 510h-233.352c-11.527 0-20.872-9.345-20.872-20.872v-429.128c0-11.527 9.344-20.872 20.872-20.872h296.714c11.527 0 20.872 9.345 20.872 20.872v365.767c-.001 46.521-37.713 84.233-84.234 84.233z" fill="url(#SVGID_4_)"/><path d="m265.536 94.922c-.061-.071-.115-.146-.177-.217-14.977-17.346-41.826-25.657-73.661-22.79-4.126.371-7.169 4.016-6.798 8.141.308 3.424 9.094 12.137 12.09 12.693.043.233.099 8.361.163 8.585l-17.75.9c-12.112 2.097-23.397 6.239-32.423 11.97-14.033 8.91-22.309 21.348-23.934 35.969-1.491 13.415 2.721 26.279 11.858 36.222l277.037 276.83c5.614-11.285 8.787-23.998 8.787-37.457v-175.683z" fill="url(#SVGID_5_)"/><path d="m82.271 357.045v132.083c0 11.527 9.344 20.872 20.872 20.872h233.352c46.521 0 84.233-37.712 84.233-84.233v-68.721h-338.457z" fill="url(#SVGID_6_)"/><path d="m336.495 510v-63.362c0-11.527 9.345-20.872 20.872-20.872h63.362c-.001 46.522-37.713 84.234-84.234 84.234z" fill="url(#SVGID_7_)"/></g><g fill="#7bacdf"><g><path d="m201.316 358.933h84.822c4.142 0 7.5 3.358 7.5 7.5s-3.358 7.5-7.5 7.5h-84.822c-4.142 0-7.5-3.358-7.5-7.5s3.358-7.5 7.5-7.5z"/><path d="m201.316 326.267h58.322c4.142 0 7.5 3.358 7.5 7.5s-3.358 7.5-7.5 7.5h-58.322c-4.142 0-7.5-3.358-7.5-7.5 0-4.143 3.358-7.5 7.5-7.5z"/><path d="m376.816 373.933h-60.5c-4.142 0-7.5-3.358-7.5-7.5s3.358-7.5 7.5-7.5h60.5c4.142 0 7.5 3.358 7.5 7.5s-3.358 7.5-7.5 7.5z"/><path d="m350.316 326.267c4.142 0 7.5 3.358 7.5 7.5s-3.358 7.5-7.5 7.5h-34c-4.142 0-7.5-3.358-7.5-7.5s3.358-7.5 7.5-7.5z"/><path d="m281.816 341.267c-4.142 0-7.5-3.358-7.5-7.5s3.358-7.5 7.5-7.5h8.5c4.142 0 7.5 3.358 7.5 7.5s-3.358 7.5-7.5 7.5z"/><path d="m376.816 303.933h-84.822c-4.142 0-7.5-3.358-7.5-7.5s3.358-7.5 7.5-7.5h84.822c4.142 0 7.5 3.358 7.5 7.5s-3.358 7.5-7.5 7.5z"/><path d="m350.316 271.267h-58.322c-4.142 0-7.5-3.358-7.5-7.5s3.358-7.5 7.5-7.5h58.322c4.142 0 7.5 3.358 7.5 7.5s-3.358 7.5-7.5 7.5z"/><path d="m201.316 288.933h60.5c4.142 0 7.5 3.358 7.5 7.5s-3.358 7.5-7.5 7.5h-60.5c-4.142 0-7.5-3.358-7.5-7.5s3.358-7.5 7.5-7.5z"/><path d="m201.316 256.267h34c4.142 0 7.5 3.358 7.5 7.5s-3.358 7.5-7.5 7.5h-34c-4.142 0-7.5-3.358-7.5-7.5 0-4.143 3.358-7.5 7.5-7.5z"/><path d="m261.316 271.267c-4.142 0-7.5-3.358-7.5-7.5s3.358-7.5 7.5-7.5h8.5c4.142 0 7.5 3.358 7.5 7.5s-3.358 7.5-7.5 7.5z"/><path d="m259.638 235.933h-58.322c-4.142 0-7.5-3.357-7.5-7.5 0-4.142 3.358-7.5 7.5-7.5h58.322c4.142 0 7.5 3.358 7.5 7.5 0 4.143-3.358 7.5-7.5 7.5z"/><path d="m350.316 235.933h-34c-4.142 0-7.5-3.357-7.5-7.5 0-4.142 3.358-7.5 7.5-7.5h34c4.142 0 7.5 3.358 7.5 7.5 0 4.143-3.358 7.5-7.5 7.5z"/><path d="m290.316 235.933h-8.5c-4.142 0-7.5-3.357-7.5-7.5 0-4.142 3.358-7.5 7.5-7.5h8.5c4.142 0 7.5 3.358 7.5 7.5 0 4.143-3.358 7.5-7.5 7.5z"/><path d="m201.316 396.433h42.744c4.142 0 7.5 3.358 7.5 7.5s-3.358 7.5-7.5 7.5h-42.744c-4.142 0-7.5-3.358-7.5-7.5s3.358-7.5 7.5-7.5z"/><path d="m276.573 396.433h100.244c4.142 0 7.5 3.358 7.5 7.5s-3.358 7.5-7.5 7.5h-100.244c-4.142 0-7.5-3.358-7.5-7.5s3.358-7.5 7.5-7.5z"/></g><g><path d="m160.729 278.07h-26.825c-8.393 0-15.22-6.828-15.22-15.22v-26.825c0-8.393 6.828-15.22 15.22-15.22h26.825c8.393 0 15.22 6.828 15.22 15.22v26.825c0 8.392-6.827 15.22-15.22 15.22zm-26.825-42.266c-.122 0-.22.099-.22.22v26.825c0 .122.099.22.22.22h26.825c.122 0 .22-.099.22-.22v-26.825c0-.122-.099-.22-.22-.22z"/><path d="m160.729 344.816h-26.825c-8.393 0-15.22-6.828-15.22-15.22v-26.825c0-8.392 6.828-15.22 15.22-15.22h26.825c8.393 0 15.22 6.828 15.22 15.22v26.825c0 8.392-6.827 15.22-15.22 15.22zm-26.825-42.266c-.122 0-.22.099-.22.22v26.825c0 .122.099.22.22.22h26.825c.122 0 .22-.099.22-.22v-26.825c0-.122-.099-.22-.22-.22z"/><path d="m160.729 411.562h-26.825c-8.393 0-15.22-6.828-15.22-15.22v-26.825c0-8.393 6.828-15.22 15.22-15.22h26.825c8.393 0 15.22 6.828 15.22 15.22v26.825c0 8.392-6.827 15.22-15.22 15.22zm-26.825-42.265c-.122 0-.22.099-.22.22v26.825c0 .122.099.22.22.22h26.825c.122 0 .22-.099.22-.22v-26.825c0-.122-.099-.22-.22-.22z"/></g></g><g><path d="m179.085 203.102c-18.667.001-34.646-6.246-45.181-17.708-9.138-9.942-13.349-22.806-11.858-36.222 1.625-14.621 9.9-27.059 23.934-35.969 11.136-7.07 25.707-11.723 41.03-13.1 4.122-.367 7.771 2.672 8.141 6.798.371 4.126-2.673 7.771-6.798 8.141-12.985 1.167-25.178 5.011-34.333 10.824-10.203 6.478-15.945 14.877-17.065 24.962-1.004 9.042 1.835 17.713 7.994 24.416 7.975 8.677 20.762 13.238 35.976 12.833 39.146-1.031 73.004-29.109 78.908-53.663 2.83-11.77.47-22.458-6.826-30.906-11.607-13.442-34.397-20.039-60.965-17.654-4.124.377-7.77-2.673-8.141-6.798s2.673-7.771 6.798-8.141c31.835-2.866 58.684 5.445 73.661 22.79 10.435 12.085 14.006 27.788 10.056 44.216-8.224 34.203-50.856 64.038-93.096 65.151-.749.02-1.494.03-2.235.03z" fill="url(#SVGID_8_)"/></g><path d="m136 264.163c-1.98 0-3.892-.781-5.303-2.193l-12.667-12.666c-2.93-2.929-2.93-7.677-.001-10.606 2.93-2.929 7.679-2.93 10.606 0l6.723 6.722c7.573-8.865 22.692-24.348 43.834-35.399 3.672-1.919 8.203-.5 10.121 3.172 1.919 3.671.499 8.203-3.172 10.121-27.257 14.247-43.847 37.441-44.011 37.674-1.276 1.806-3.287 2.961-5.49 3.149-.213.016-.427.026-.64.026z" fill="url(#SVGID_9_)"/><path d="m157 331.163c-1.98 0-3.892-.781-5.303-2.193l-12.667-12.667c-2.93-2.929-2.93-7.677-.001-10.606 2.93-2.929 7.679-2.93 10.606 0l6.723 6.722c7.573-8.865 22.692-24.348 43.834-35.399 3.672-1.919 8.203-.499 10.121 3.172 1.919 3.671.499 8.203-3.172 10.121-27.257 14.247-43.847 37.441-44.011 37.674-1.276 1.806-3.287 2.961-5.49 3.149-.213.017-.427.027-.64.027z" fill="url(#SVGID_10_)"/><path d="m136.5 402.663c-1.98 0-3.892-.781-5.303-2.193l-12.667-12.667c-2.93-2.929-2.93-7.677-.001-10.606 2.93-2.929 7.679-2.93 10.606 0l6.723 6.722c7.573-8.865 22.692-24.348 43.834-35.399 3.672-1.919 8.203-.499 10.121 3.172 1.919 3.671.499 8.203-3.172 10.121-27.257 14.247-43.847 37.441-44.011 37.674-1.276 1.806-3.287 2.961-5.49 3.149-.213.017-.427.027-.64.027z" fill="url(#SVGID_11_)"/><g><path d="m166.095 176.82c0-.381.126-.888.253-1.396l23.599-77.393c1.396-4.441 7.105-6.597 12.941-6.597s11.546 2.157 12.941 6.597l23.726 77.393c.127.507.253 1.015.253 1.396 0 4.694-7.231 8.12-12.687 8.12-3.172 0-5.709-1.015-6.471-3.679l-4.313-15.859h-26.771l-4.314 15.859c-.761 2.664-3.299 3.679-6.471 3.679-5.455 0-12.686-3.425-12.686-8.12zm46.055-26.643-9.262-34.002-9.262 34.002z" fill="url(#SVGID_12_)"/></g></g></svg>